# xmcd
#
# Track frame offsets: 
#        150
#        20975
#        45428
#        70353
#        81249
#        96998
#        106908
#        123898
#        139160
#        157398
#        179238
#        199899
#        219543
#        239316
#
# Disc length: 3321 seconds
#
# Revision: 0
# Processed by: cddbd v1.5.2PL0 Copyright (c) Steve Scherf et al.
# Submitted via: ExactAudioCopy v0.95b3
#
DISCID=d70cf70e
DTITLE=Lonstar - Co to jest to country
DYEAR=2008
DGENRE=Country
TTITLE0=Co to jest to country?
TTITLE1=Do Sejn
TTITLE2=Auuu...
TTITLE3=Lament w d-moll
TTITLE4=Dla nieladnej kobiety
TTITLE5=Slady naszych lap
TTITLE6=chcesz mnie, no to bierz mnie
TTITLE7=Miej czas
TTITLE8=Ju¿ tylko we snie
TTITLE9=Kiedy czasy byly zle
TTITLE10=Wladcy chromu i skór
TTITLE11=Dlugi kurs
TTITLE12=Caly swiat, ty i ja  (with Suzie Candell)
TTITLE13=Sequoia Grove  (instrumental)
EXTD=
EXTT0=
EXTT1=
EXTT2=
EXTT3=
EXTT4=
EXTT5=
EXTT6=
EXTT7=
EXTT8=
EXTT9=
EXTT10=
EXTT11=
EXTT12=
EXTT13=
PLAYORDER=
